<?xml version="1.0" encoding="UTF-8"?>
<svg version="1.1" viewBox="0 0 256 256" xmlns="http://www.w3.org/2000/svg"><circle cx="128" cy="128" r="128" style="fill-rule:evenodd;fill:#ecd53f;paint-order:stroke fill markers"/><path d="m220 186c-0.128 2.57-0.492 5.69-1.32 8.65-0.822 2.95-2.13 5.99-4.86 8.62-2.74 2.65-7.18 4.32-11.5 4.3l-53.3-0.0543c-0.367 0.146-0.745 0.484-1.33 0.865-1.5 0.948-3.81 2.69-5.76 4.32-1.95 1.62-3.82 3.26-5.77 4.75-0.967 0.747-1.94 1.51-3.1 2.16-1.17 0.652-2.11 1.29-4.88 1.29-2.8-3e-3 -4.62-1.01-5.78-1.73-1.15-0.734-1.79-1.39-2.66-2.16-1.74-1.54-3.61-3.19-5.33-4.76-3.43-3.14-6.94-4.76-7.99-4.76l-53.3-0.0543c-4.74-5e-3 -9.3-2.25-12-5.19-2.69-2.95-4.16-6.45-4.9-9.52-1.47-6.13-0.896-12.2-0.917-13l14.1 0.0144c0.0026 2.57-0.36 6.55 0.455 9.94 0.414 1.7 1.4 3.05 1.78 3.46 0.37 0.41 0.196 0.432 1.33 0.435l53.3 0.0543c8.24 8e-3 13.7 4.93 17.8 8.69 1.64 1.5 2.89 2.42 4 3.46 1.3-1.04 3.07-1.94 4.88-3.45 2.1-1.75 4.15-3.6 6.65-5.18 2.51-1.59 5.14-3.46 9.32-3.45l53.3 0.0543c1.19 1e-3 1.06-0.172 1.33-0.433 0.27-0.257 0.921-1.12 1.33-2.59 0.822-2.95 0.883-7.36 0.879-10.8l14.1 0.0144c2e-3 1.52 0.134 3.48 6e-3 6.05zm-39.1-17.3q-3.12-8.95-6.63-20.2-3.52-11.3-6.64-22.5-3.13-11.3-5.59-21.3-2.48-9.99-3.68-16.4l16.9 0.0172q0.785 6.23 2.37 14.5 1.57 8.17 3.36 17 1.95 8.69 4.01 17.2 2.21 8.43 4.32 15.2 2.06-6.61 4.16-15.1 2.07-8.55 3.85-17.2 1.8-8.82 3.32-17.1 1.55-8.3 2.6-14.5l16.8 0.0171q-1.55 7.78-3.85 17.3-2.2 9.59-5.15 20.2-2.84 10.5-6.33 21.5-3.5 10.9-7.25 21.1zm-42.9-0.0437q-5.49-13.4-11.9-26.6-6.4-13.4-13.8-26.7l0.0543 53.3-14.4-0.0147-0.0817-80.3 12.8 0.0131q3.64 5.71 7.31 12.5 3.63 6.62 6.99 13.2 3.5 6.62 6.4 12.9 2.99 6.23 5.08 10.9l-0.0502-49.4 14.4 0.0147 0.0817 80.3zm-103-0.105-0.0817-80.3 48.6 0.0495 0.0135 13.2-32.7-0.0333 0.0184 18.1 28.4 0.0289 0.0135 13.2-28.4-0.0289 0.023 22.5 35.5 0.0361 0.0135 13.2zm185-97.6c-0.134-2.57-0.503-5.7-1.34-8.65-0.828-2.95-2.15-5.99-4.87-8.63-2.75-2.65-7.19-4.33-11.5-4.33l-53.3-0.0543c-0.367-0.146-0.746-0.485-1.33-0.867-1.5-0.951-3.82-2.7-5.77-4.33-1.95-1.63-3.83-3.26-5.78-4.76-0.968-0.749-1.95-1.51-3.11-2.16-1.17-0.655-2.11-1.3-4.89-1.3-2.8-0.0028-4.61 0.997-5.77 1.72-1.15 0.732-1.79 1.39-2.66 2.16-1.73 1.54-3.61 3.18-5.32 4.75-3.42 3.13-6.93 4.75-7.98 4.74l-53.3-0.0543c-4.74-0.0049-9.29 2.23-12 5.17-2.68 2.95-4.14 6.44-4.88 9.51-1.46 6.13-0.871 12.2-0.89 13l14.1 0.0144c-0.0026-2.57-0.373-6.55 0.435-9.94 0.41-1.7 1.39-3.04 1.77-3.46 0.369-0.41 0.195-0.432 1.33-0.433l53.3 0.0543c8.24 0.0084 13.7-4.9 17.8-8.66 1.63-1.49 2.88-2.42 3.99-3.45 1.31 1.04 3.07 1.95 4.89 3.46 2.11 1.76 4.15 3.61 6.66 5.19 2.51 1.59 5.14 3.47 9.33 3.47l53.3 0.0543c1.19 0.0012 1.06 0.175 1.33 0.435 0.27 0.258 0.923 1.12 1.34 2.6 0.828 2.95 0.898 7.36 0.901 10.8l14.1 0.0144c-2e-3 -1.52 0.127-3.48-6e-3 -6.05z"/></svg>
